<?xml version="1.0" standalone="no"?>
<!DOCTYPE svg PUBLIC "-//W3C//DTD SVG 20010904//EN"
 "http://www.w3.org/TR/2001/REC-SVG-20010904/DTD/svg10.dtd">
<svg version="1.0" xmlns="http://www.w3.org/2000/svg"
 width="55.000000pt" height="80.000000pt" viewBox="0 0 55.000000 80.000000"
 preserveAspectRatio="xMidYMid meet">
<metadata>
Created by potrace 1.13, written by Peter Selinger 2001-2015
</metadata>
<g transform="translate(0.000000,80.000000) scale(0.100000,-0.100000)"
fill="#000000" stroke="none">
<path d="M172 777 c-45 -14 -118 -81 -143 -130 -17 -32 -20 -54 -17 -112 3
-63 8 -78 44 -135 23 -36 66 -104 97 -152 31 -51 65 -120 78 -163 20 -63 27
-75 45 -75 17 0 24 10 34 47 21 77 54 143 131 259 88 134 99 158 99 229 0 144
-111 246 -265 244 -38 -1 -85 -6 -103 -12z m212 -61 c59 -32 98 -86 104 -144
6 -68 -9 -107 -88 -226 -38 -57 -81 -128 -96 -159 l-28 -56 -41 77 c-23 43
-67 114 -97 159 -66 96 -82 139 -76 205 8 77 77 149 161 168 47 11 117 0 161
-24z"/>
<path d="M235 608 c-51 -29 -61 -93 -20 -133 55 -56 155 -18 155 60 0 66 -76
107 -135 73z"/>
</g>
</svg>
